<svg xmlns="http://www.w3.org/2000/svg" xmlns:xlink="http://www.w3.org/1999/xlink" width="512" height="512" viewBox="0 0 512 512">
  <defs>
    <clipPath id="clip-vector-logo-triangle">
      <rect width="512" height="512"/>
    </clipPath>
  </defs>
  <g id="vector-logo-triangle" clip-path="url(#clip-vector-logo-triangle)">
    <g id="Polygon_1" data-name="Polygon 1" transform="translate(106 101)" fill="none">
      <path d="M132.676,30.028a20,20,0,0,1,34.647,0L282.7,230.006A20,20,0,0,1,265.372,260H34.628A20,20,0,0,1,17.3,230.006Z" stroke="none"/>
      <path d="M 149.9999237060547 100.0555419921875 L 86.57046508789063 210.0000305175781 L 213.4295043945313 210.0000305175781 L 149.9999237060547 100.0555419921875 M 149.9999847412109 20.022216796875 C 156.7377014160156 20.022216796875 163.4754180908203 23.35739135742188 167.3236694335938 30.02777099609375 L 282.6954956054688 230.0055236816406 C 290.3878479003906 243.3388519287109 280.7649230957031 260.0000305175781 265.3717651367188 260.0000305175781 L 34.628173828125 260.0000305175781 C 19.2349853515625 260.0000305175781 9.612152099609375 243.3388519287109 17.30450439453125 230.0055236816406 L 132.6762542724609 30.02777099609375 C 136.5245361328125 23.35739135742188 143.2622680664063 20.022216796875 149.9999847412109 20.022216796875 Z" stroke="none" fill="#5cb3ff"/>
    </g>
  </g>
</svg>
