<svg xmlns="http://www.w3.org/2000/svg" xmlns:xlink="http://www.w3.org/1999/xlink" width="512" height="512" viewBox="0 0 512 512"><defs><clipPath id="b"><rect width="512" height="512"/></clipPath></defs><g id="a" clip-path="url(#b)"><g transform="translate(171.12 99.487)"><path d="M168.754,111.516a11.874,11.874,0,0,0-10.572-6.509l-30.95.017,14.532-90.733a11.852,11.852,0,0,0-6.913-13,12.049,12.049,0,0,0-14.214,3.788L1.742,159.384A12.1,12.1,0,0,0,.683,172.048a11.967,11.967,0,0,0,10.477,6.336l50.666-.026L28.8,296.882a11.952,11.952,0,0,0,6.517,14.093c.172.077,9.126,4.021,14.92-4.563l117.4-182.465a11.567,11.567,0,0,0,1.1-12.423Z" transform="translate(0 0)" fill="#cfafff" fill-rule="evenodd"/></g></g></svg>